
<?xml version="1.0" encoding="utf-8"?>
<!-- Generator: Adobe Illustrator 22.1.0, SVG Export Plug-In . SVG Version: 6.00 Build 0)  -->
<svg version="1.1" xmlns="http://www.w3.org/2000/svg" xmlns:xlink="http://www.w3.org/1999/xlink" x="0px" y="0px"
	 viewBox="0 0 240 240" style="enable-background:new 0 0 240 240;" xml:space="preserve">
<style type="text/css">
	.st0{fill:none;stroke:#005EB8;stroke-width:4;stroke-linecap:round;stroke-linejoin:round;stroke-miterlimit:10;}
	.st1{display:none;}
	.st2{display:inline;}
	.st3{fill:#005EB8;}
	.st4{display:inline;fill:#005EB8;}
	.st5{fill:none;stroke:#005EB8;stroke-width:4;stroke-linecap:round;stroke-linejoin:bevel;stroke-miterlimit:10;}
	.st6{fill:#005EB8;}
	.st7{fill:none;stroke:#005EB8;stroke-width:4;stroke-miterlimit:10;}
	.st8{fill:none;stroke:#005EB8;stroke-width:4;stroke-linecap:round;stroke-miterlimit:10;}
	.st9{fill:none;stroke:#005EB8;stroke-width:4;stroke-miterlimit:10;stroke-dasharray:11.6,11.6;}
	.st10{fill:none;stroke:#005EB8;stroke-width:1.0048;stroke-miterlimit:10;}
	.st11{fill:none;stroke:#005EB8;stroke-miterlimit:10;}
	.st12{fill:none;stroke:#005EB8;stroke-width:3.8285;stroke-linecap:round;stroke-linejoin:round;stroke-miterlimit:10;}
	.st13{fill:none;stroke:#005EB8;stroke-width:3.5755;stroke-linecap:round;stroke-linejoin:round;stroke-miterlimit:10;}
	.st14{fill:none;stroke:#005EB8;stroke-width:4.21;stroke-linecap:round;stroke-linejoin:bevel;stroke-miterlimit:10;}
	.st15{fill:none;stroke:#005EB8;stroke-width:3.7776;stroke-linecap:round;stroke-linejoin:round;stroke-miterlimit:10;}
	.st16{fill:none;stroke:#005EB8;stroke-width:3.7048;stroke-linecap:round;stroke-linejoin:round;stroke-miterlimit:10;}
	.st17{fill:none;stroke:#005EB8;stroke-width:3.6211;stroke-miterlimit:10;}
	.st18{fill:none;stroke:#005EB8;stroke-width:4.2481;stroke-linecap:round;stroke-miterlimit:10;}
	.st19{fill:none;stroke:#005EB8;stroke-width:3.4262;stroke-miterlimit:10;}
	.st20{fill:none;stroke:#005EB8;stroke-width:4.2529;stroke-linecap:round;stroke-linejoin:round;stroke-miterlimit:10;}
</style>
<g id="Layer_1">
</g>
<g id="Layer_2">
	<path class="st0" d="M41.2,80.5l20.6-35.3c0.6-0.9,1.7-1.4,2.8-1.4h23.9"/>
	<path class="st0" d="M146.3,43.8h24.1c1.1,0,2.1,0.5,2.8,1.4l20.4,35.3"/>
	<path class="st0" d="M41.2,80.5v130.7c0,3.3,2.7,6,6,6h52c1.7,0,3-1.3,3-3v-42.6H113c1.2,0,7.5,0,8.7,0h10.8v42.6c0,1.7,1.3,3,3,3
		h52c3.3,0,6-2.7,6-6V80.5H41.2z"/>
	<g>
		<path class="st0" d="M141.4,61.8c0,1.6-1.3,3-3,3h-42c-1.6,0-3-1.3-3-3v-36c0-1.6,1.4-3,3-3h42c1.7,0,3,1.4,3,3V61.8z"/>
	</g>
	<path class="st0" d="M84.2,122.7H59.4c-1.7,0-3-1.3-3-3V98.3c0-1.7,1.3-3,3-3h24.9c1.7,0,3,1.3,3,3v21.4
		C87.2,121.4,85.9,122.7,84.2,122.7z"/>
	<path class="st0" d="M129.6,122.7h-24.9c-1.7,0-3-1.3-3-3V98.3c0-1.7,1.3-3,3-3h24.9c1.7,0,3,1.3,3,3v21.4
		C132.6,121.4,131.3,122.7,129.6,122.7z"/>
	<path class="st0" d="M84.2,160.9H59.4c-1.7,0-3-1.3-3-3v-21.4c0-1.7,1.3-3,3-3h24.9c1.7,0,3,1.3,3,3v21.4
		C87.2,159.6,85.9,160.9,84.2,160.9z"/>
	<path class="st0" d="M129.9,160.9H105c-1.7,0-3-1.3-3-3v-21.4c0-1.7,1.3-3,3-3h24.9c1.7,0,3,1.3,3,3v21.4
		C132.9,159.6,131.6,160.9,129.9,160.9z"/>
	<path class="st7" d="M84.2,198.1H59.4c-1.7,0-3-1.3-3-3v-21.4c0-1.7,1.3-3,3-3h24.9c1.7,0,3,1.3,3,3v21.4
		C87.2,196.8,85.9,198.1,84.2,198.1z"/>
	<path class="st7" d="M175.4,198.1h-24.9c-1.7,0-3-1.3-3-3v-21.4c0-1.7,1.3-3,3-3h24.9c1.7,0,3,1.3,3,3v21.4
		C178.4,196.8,177,198.1,175.4,198.1z"/>
	<path class="st0" d="M175.4,160.9h-24.9c-1.7,0-3-1.3-3-3v-21.4c0-1.7,1.3-3,3-3h24.9c1.7,0,3,1.3,3,3v21.4
		C178.4,159.6,177,160.9,175.4,160.9z"/>
	<path class="st0" d="M175.4,122.7h-24.9c-1.7,0-3-1.3-3-3V98.3c0-1.7,1.3-3,3-3h24.9c1.7,0,3,1.3,3,3v21.4
		C178.4,121.4,177,122.7,175.4,122.7z"/>
	<g>
		<line class="st8" x1="117.4" y1="31.8" x2="117.4" y2="55.8"/>
		<line class="st8" x1="129.5" y1="43.8" x2="105.5" y2="43.8"/>
	</g>
</g>
</svg>
